<svg width="13" height="15" viewBox="0 0 13 15" fill="none" xmlns="http://www.w3.org/2000/svg">
<path d="M9.28 3.51099C7.968 3.51099 7.413 4.15499 6.499 4.15499C5.562 4.15499 4.847 3.51499 3.711 3.51499C3.08534 3.55283 2.47883 3.7453 1.94584 4.07515C1.41284 4.405 0.970003 4.86193 0.656999 5.40499C-0.401001 7.08399 -0.222001 10.247 1.493 12.942C2.106 13.907 2.926 14.988 4 15H4.02C4.953 15 5.231 14.371 6.52 14.363H6.54C7.805 14.363 8.059 14.996 8.989 14.996H9.009C10.083 14.984 10.946 13.785 11.559 12.825C11.9316 12.25 12.2481 11.6406 12.504 11.005C11.9282 10.7689 11.4299 10.3766 11.0651 9.87248C10.7002 9.36834 10.4835 8.77232 10.4392 8.1516C10.3949 7.53088 10.5249 6.91013 10.8144 6.3593C11.104 5.80847 11.5416 5.34946 12.078 5.03399C11.7565 4.58707 11.3387 4.21816 10.8554 3.95453C10.3722 3.69091 9.83578 3.53932 9.286 3.51099H9.28Z" fill="white"/>
<path d="M8.99099 0C8.1177 0.109135 7.32026 0.551202 6.76499 1.234C6.48724 1.55852 6.27941 1.93684 6.15449 2.34531C6.02958 2.75379 5.99026 3.18364 6.03899 3.608H6.10099C6.52839 3.58509 6.94543 3.46785 7.32217 3.2647C7.69891 3.06155 8.026 2.77752 8.27999 2.433C8.82884 1.74764 9.08443 0.873057 8.99099 0Z" fill="white"/>
</svg>
