<svg width="8" height="14" viewBox="0 0 8 14" fill="none" xmlns="http://www.w3.org/2000/svg">
<path d="M5.759 7.48501L0.839997 2.56701C0.753524 2.48105 0.6849 2.37884 0.638073 2.26626C0.591246 2.15367 0.567139 2.03294 0.567139 1.91101C0.567139 1.78908 0.591246 1.66835 0.638073 1.55577C0.6849 1.44319 0.753524 1.34098 0.839997 1.25501C1.01533 1.08206 1.25171 0.9851 1.498 0.9851C1.74428 0.9851 1.98066 1.08206 2.156 1.25501L7.73 6.82401C7.89854 6.993 7.99541 7.22048 8.00044 7.4591C8.00546 7.69771 7.91827 7.92907 7.757 8.10501L2.16 13.714C1.98601 13.8885 1.74983 13.9868 1.50341 13.9872C1.25699 13.9875 1.02051 13.89 0.845997 13.716C0.671484 13.542 0.573234 13.3058 0.572859 13.0594C0.572483 12.813 0.670015 12.5765 0.843997 12.402L5.759 7.48501Z" fill="#333A3A"/>
</svg>
