<svg width="12" height="7" viewBox="0 0 12 7" fill="none" xmlns="http://www.w3.org/2000/svg">
    <path
        d="M6.36999 4.86599L10.429 0.802991C10.5 0.731515 10.5844 0.67479 10.6775 0.636081C10.7705 0.597372 10.8702 0.577444 10.971 0.577444C11.0717 0.577444 11.1715 0.597372 11.2645 0.636081C11.3575 0.67479 11.442 0.731515 11.513 0.802991C11.6558 0.947824 11.7359 1.14307 11.7359 1.34649C11.7359 1.54991 11.6558 1.74516 11.513 1.88999L6.91299 6.48999C6.77333 6.62906 6.58544 6.70896 6.3884 6.71305C6.19135 6.71715 6.0003 6.64514 5.85499 6.51199L1.22399 1.89299C1.15041 1.82239 1.09166 1.73783 1.05115 1.64426C1.01065 1.55068 0.989205 1.44997 0.988084 1.34801C0.986962 1.24605 1.00618 1.14489 1.04462 1.05045C1.08305 0.956003 1.13994 0.870171 1.21194 0.797971C1.28394 0.72577 1.36961 0.668651 1.46395 0.629953C1.55829 0.591256 1.65939 0.571757 1.76135 0.572597C1.86332 0.573437 1.96409 0.594599 2.05778 0.634845C2.15146 0.675091 2.23618 0.733614 2.30699 0.806991L6.36999 4.86599Z"
        fill="#333A3A" />
</svg>
