<svg width="14" height="17" viewBox="0 0 14 17" fill="none" xmlns="http://www.w3.org/2000/svg">
<path d="M13.2452 0.759786H0.724221C0.592089 0.75992 0.462521 0.79626 0.349593 0.864859C0.236664 0.933458 0.144693 1.03169 0.083672 1.14889C0.0226511 1.26609 -0.00508735 1.39777 0.00347183 1.52962C0.012031 1.66147 0.0565612 1.78846 0.132222 1.89679L4.91222 8.39979C5.02376 8.56037 5.08344 8.75127 5.08322 8.94679V15.4748C5.08327 15.6165 5.12273 15.7554 5.19719 15.876C5.27166 15.9966 5.37819 16.094 5.50488 16.1575C5.63157 16.221 5.77343 16.2481 5.91459 16.2356C6.05575 16.2231 6.19065 16.1716 6.30422 16.0868L8.42522 14.4868C8.56986 14.3788 8.68737 14.2387 8.76843 14.0774C8.84949 13.9162 8.89187 13.7383 8.89222 13.5578V8.94679C8.89201 8.75127 8.95168 8.56037 9.06322 8.39979L13.8412 1.89979C13.9179 1.79117 13.9632 1.6635 13.972 1.53083C13.9809 1.39816 13.9529 1.26563 13.8913 1.14779C13.8297 1.02996 13.7368 0.931397 13.6228 0.862943C13.5088 0.794489 13.3782 0.758795 13.2452 0.759786ZM8.32522 7.86779C8.10148 8.18304 7.98158 8.5602 7.98222 8.94679V13.5598C7.98214 13.5986 7.97307 13.6368 7.95572 13.6715C7.93837 13.7062 7.91321 13.7364 7.88222 13.7598L5.98822 15.1878V8.94679C5.98869 8.56394 5.871 8.19027 5.65122 7.87679L2.53122 3.63179H11.4362L8.32522 7.86779ZM12.1032 2.72479H1.86522L1.08822 1.66679H12.8802L12.1032 2.72479Z" fill="black"/>
</svg>
