<svg width="9" height="15" viewBox="0 0 9 15" fill="none" xmlns="http://www.w3.org/2000/svg">
<path d="M8.07201 8.47697L8.48601 5.77697H5.90001V4.02797C5.88199 3.82674 5.9094 3.62403 5.98022 3.43481C6.05104 3.24559 6.16345 3.07469 6.30917 2.93474C6.45488 2.79478 6.63017 2.68934 6.82209 2.62621C7.01401 2.56308 7.21766 2.54386 7.41801 2.56997H8.60001V0.271975C7.90739 0.160219 7.20752 0.0993897 6.50601 0.0899746C6.02439 0.0532594 5.54059 0.122912 5.08889 0.293998C4.63718 0.465083 4.22863 0.733414 3.89218 1.07998C3.55573 1.42654 3.29962 1.84286 3.14198 2.29943C2.98435 2.756 2.92905 3.24165 2.98001 3.72197V5.77898H0.609009V8.47897H2.98001V15H5.90001V8.47697H8.07201Z" fill="white"/>
</svg>
