<svg width="24" height="24" viewBox="0 0 24 24" fill="none" xmlns="http://www.w3.org/2000/svg">
<path d="M23.9619 9.69101C23.9168 9.55217 23.8333 9.42892 23.7212 9.33549C23.609 9.24206 23.4727 9.18227 23.3279 9.16301L15.9279 8.17601L12.6999 1.44001C12.6373 1.3073 12.5383 1.19512 12.4143 1.11656C12.2904 1.03799 12.1467 0.996277 11.9999 0.996277C11.8532 0.996277 11.7095 1.03799 11.5855 1.11656C11.4616 1.19512 11.3626 1.3073 11.2999 1.44001L8.07595 8.17901L0.675946 9.16601C0.531243 9.18533 0.394956 9.24519 0.282818 9.33866C0.170679 9.43213 0.0872622 9.55541 0.0421965 9.69427C-0.00286921 9.83313 -0.0077459 9.9819 0.0281294 10.1234C0.0640048 10.2649 0.139169 10.3934 0.244945 10.494L5.65495 15.644L4.29995 22.987C4.27342 23.1307 4.28809 23.2789 4.34227 23.4146C4.39646 23.5503 4.48793 23.6679 4.60613 23.7537C4.72433 23.8396 4.86441 23.8903 5.0102 23.8999C5.15598 23.9095 5.3015 23.8776 5.42995 23.808L11.9999 20.254L18.5699 23.807C18.6984 23.8766 18.8439 23.9085 18.9897 23.8989C19.1355 23.8893 19.2756 23.8386 19.3938 23.7527C19.512 23.6669 19.6034 23.5493 19.6576 23.4136C19.7118 23.2779 19.7265 23.1297 19.6999 22.986L18.3499 15.641L23.7599 10.491C23.8656 10.3903 23.9407 10.2617 23.9764 10.1202C24.0122 9.97862 24.0072 9.82983 23.9619 9.69101Z" fill="#A0A0A0"/>
</svg>
