<svg width="15" height="16" viewBox="0 0 15 16" fill="none" xmlns="http://www.w3.org/2000/svg">
<path d="M14.629 6.722L14.553 6.401H7.57401V9.355H11.744C11.5131 10.2599 10.9853 11.0613 10.245 11.6307C9.50478 12.2002 8.5949 12.5049 7.66101 12.496C6.44056 12.4858 5.26821 12.0187 4.37501 11.187C3.93542 10.7543 3.58549 10.2391 3.34526 9.67093C3.10503 9.10278 2.97921 8.49283 2.97501 7.876C2.9924 6.63697 3.48456 5.45185 4.35001 4.565C5.23134 3.73244 6.40169 3.27491 7.61401 3.289C8.63981 3.30327 9.62596 3.6875 10.391 4.371L12.491 2.283C11.1323 1.06336 9.37185 0.386965 7.54601 0.383C5.52257 0.371377 3.57707 1.16252 2.13601 2.583C0.763208 4.00546 -0.00244264 5.90614 0.00100567 7.883C-0.00994516 9.81943 0.724851 11.6858 2.05301 13.095C2.79305 13.8344 3.67378 14.418 4.64318 14.8114C5.61257 15.2047 6.65096 15.3997 7.69701 15.385C8.64274 15.3926 9.58012 15.2076 10.452 14.841C11.3238 14.4745 12.1119 13.9341 12.768 13.253C14.0565 11.837 14.7536 9.98115 14.716 8.067C14.7221 7.61708 14.693 7.16738 14.629 6.722Z" fill="white"/>
</svg>
