<svg width="21" height="17" viewBox="0 0 21 17" fill="none" xmlns="http://www.w3.org/2000/svg">
<path d="M15.457 12.349L15.421 12.385C14.079 11.848 12.58 12.242 11.409 11.191C10.2787 9.94884 9.25543 8.61342 8.34998 7.199C7.27198 5.811 6.15998 4.449 5.02998 3.099C4.29439 2.06459 3.42936 1.12864 2.45598 0.314001C2.30998 0.0280013 2.17798 -0.0909987 1.94398 0.0780013C1.89068 0.0916109 1.84179 0.11873 1.80203 0.156741C1.76227 0.194752 1.73298 0.24237 1.71698 0.295001C1.54184 0.50167 1.3789 0.718371 1.22898 0.944001C0.609273 1.7215 0.206719 2.64937 0.0623237 3.63308C-0.0820715 4.6168 0.0368524 5.62121 0.406981 6.544C1.12598 8.496 0.971981 15.379 0.971981 15.379C0.971981 15.379 1.27998 15.79 1.58898 15.584C1.89798 15.378 1.17798 8.855 1.74298 8.084C1.74298 8.084 4.15698 6.748 6.21198 11.32C8.26698 15.892 9.24198 15.994 10.681 15.994C13.5994 16.0838 16.5203 15.9292 19.413 15.532C22.494 14.966 20.645 13.836 15.457 12.349ZM10.783 13.119C8.93398 10.96 4.46498 3.512 3.33598 1.971C3.31498 1.943 3.29598 1.915 3.27698 1.887C3.88298 2.567 4.42298 3.335 4.97098 3.987C6.33398 5.61 7.64798 7.274 8.93498 8.957C9.62837 10.0133 10.4188 11.0026 11.296 11.912C12.33 12.84 13.683 12.48 14.896 12.844C13.976 13.573 12.123 14.681 10.783 13.117V13.119Z" fill="black"/>
</svg>
