<svg width="16" height="18" viewBox="0 0 16 18" fill="none" xmlns="http://www.w3.org/2000/svg">
<path d="M2.897 9.66601C3.86112 10.4489 5.05561 10.8937 6.29699 10.932V9.77901H8.97599V10.932C10.1824 10.8975 11.346 10.4778 12.2966 9.73433C13.2473 8.99081 13.9349 7.96254 14.259 6.80001V4.95301H11.889C11.8116 3.87867 11.3303 2.87348 10.5418 2.1397C9.75327 1.40592 8.71612 0.997986 7.639 0.997986C6.56187 0.997986 5.52472 1.40592 4.73621 2.1397C3.94769 2.87348 3.46634 3.87867 3.389 4.95301H1.021V6.80001C1.33602 7.92585 1.99124 8.92684 2.897 9.66601ZM7.64 1.94001C8.46725 1.94084 9.26449 2.25002 9.876 2.80716C10.4875 3.36431 10.8694 4.1294 10.947 4.95301H4.334C4.4116 4.12957 4.79332 3.36462 5.40462 2.8075C6.01592 2.25038 6.81291 1.94109 7.64 1.94001Z" fill="black"/>
<path d="M15.178 12.075L14.512 8.59301C13.9467 9.56626 13.1413 10.3784 12.1729 10.9519C11.2044 11.5254 10.1052 11.8412 8.97999 11.869V13.035H6.29999V11.875C5.17481 11.8472 4.07554 11.5314 3.10708 10.9579C2.13863 10.3844 1.33332 9.57226 0.767991 8.59901L0.101991 12.081C-0.0328511 12.6746 -0.0322786 13.291 0.103666 13.8844C0.239611 14.4777 0.507438 15.0329 0.887269 15.5086C1.2671 15.9843 1.74919 16.3683 2.29774 16.6322C2.8463 16.8961 3.44725 17.0331 4.05599 17.033H11.225C11.8337 17.0331 12.4347 16.8961 12.9832 16.6322C13.5318 16.3683 14.0139 15.9843 14.3937 15.5086C14.7735 15.0329 15.0414 14.4777 15.1773 13.8844C15.3133 13.291 15.3138 12.6746 15.179 12.081L15.178 12.075Z" fill="black"/>
<path d="M7.23999 10.719H8.03999V12.098H7.23999V10.719Z" fill="black"/>
</svg>
