<svg width="31" height="24" viewBox="0 0 31 24" fill="none" xmlns="http://www.w3.org/2000/svg">
<path d="M15.022 6.22599L5.144 14.361V23.146C5.14479 23.3728 5.23543 23.59 5.39606 23.75C5.5567 23.9101 5.77422 24 6.001 24L12.001 23.984C12.2276 23.9829 12.4445 23.8922 12.6044 23.7316C12.7643 23.571 12.854 23.3536 12.854 23.127V17.999C12.854 17.7717 12.9443 17.5537 13.105 17.393C13.2657 17.2323 13.4837 17.142 13.711 17.142H17.14C17.3673 17.142 17.5853 17.2323 17.746 17.393C17.9067 17.5537 17.997 17.7717 17.997 17.999V23.123C17.9966 23.2358 18.0185 23.3475 18.0614 23.4519C18.1043 23.5562 18.1673 23.651 18.2469 23.7309C18.3266 23.8108 18.4212 23.8742 18.5253 23.9175C18.6295 23.9607 18.7412 23.983 18.854 23.983L24.854 24C25.0813 24 25.2993 23.9097 25.46 23.749C25.6207 23.5883 25.711 23.3703 25.711 23.143V14.356L15.842 6.22599C15.7259 6.13232 15.5812 6.08123 15.432 6.08123C15.2828 6.08123 15.1381 6.13232 15.022 6.22599ZM30.622 11.756L26.143 8.06399V0.645991C26.143 0.475457 26.0753 0.311907 25.9547 0.191321C25.8341 0.0707352 25.6705 0.00299072 25.5 0.00299072H22.5C22.3295 0.00299072 22.1659 0.0707352 22.0453 0.191321C21.9247 0.311907 21.857 0.475457 21.857 0.645991V4.53599L17.057 0.588991C16.5967 0.210295 16.0191 0.0032506 15.423 0.0032506C14.8269 0.0032506 14.2493 0.210295 13.789 0.588991L0.232997 11.755C0.101625 11.8636 0.0187682 12.02 0.00264146 12.1897C-0.0134852 12.3594 0.038438 12.5286 0.146997 12.66L1.513 14.321C1.56673 14.3863 1.6328 14.4403 1.70744 14.48C1.78207 14.5197 1.8638 14.5443 1.94796 14.5524C2.03211 14.5605 2.11703 14.5519 2.19785 14.5271C2.27868 14.5023 2.35383 14.4618 2.419 14.408L15.019 4.02799C15.1351 3.93432 15.2798 3.88323 15.429 3.88323C15.5782 3.88323 15.7229 3.93432 15.839 4.02799L28.439 14.408C28.5704 14.5166 28.7396 14.5685 28.9093 14.5523C29.079 14.5362 29.2354 14.4534 29.344 14.322L30.71 12.661C30.7638 12.5955 30.8041 12.5201 30.8286 12.4391C30.8532 12.358 30.8614 12.2729 30.853 12.1886C30.8445 12.1043 30.8195 12.0225 30.7794 11.9479C30.7392 11.8734 30.6847 11.8074 30.619 11.754L30.622 11.756Z" fill="#A0A0A0"/>
</svg>
