<svg width="21" height="16" viewBox="0 0 21 16" fill="none" xmlns="http://www.w3.org/2000/svg">
<path d="M3.6771 12.308H1.2151C1.13417 12.308 1.05403 12.324 0.979288 12.355C0.904542 12.386 0.836656 12.4315 0.779522 12.4888C0.722387 12.5462 0.677129 12.6142 0.64634 12.689C0.615551 12.7639 0.599838 12.8441 0.600101 12.925V15.385C0.600101 15.5481 0.664895 15.7045 0.78023 15.8199C0.895565 15.9352 1.05199 16 1.2151 16H3.6771C3.84021 16 3.99664 15.9352 4.11197 15.8199C4.22731 15.7045 4.2921 15.5481 4.2921 15.385V12.925C4.29236 12.8441 4.27665 12.7639 4.24586 12.689C4.21507 12.6142 4.16981 12.5462 4.11268 12.4888C4.05555 12.4315 3.98766 12.386 3.91291 12.355C3.83817 12.324 3.75803 12.308 3.6771 12.308ZM3.6771 0H1.2151C1.05199 0 0.895565 0.0647944 0.78023 0.180129C0.664895 0.295464 0.600101 0.451892 0.600101 0.615V3.077C0.600101 3.24011 0.664895 3.39654 0.78023 3.51187C0.895565 3.62721 1.05199 3.692 1.2151 3.692H3.6771C3.84021 3.692 3.99664 3.62721 4.11197 3.51187C4.22731 3.39654 4.2921 3.24011 4.2921 3.077V0.615C4.2921 0.451892 4.22731 0.295464 4.11197 0.180129C3.99664 0.0647944 3.84021 0 3.6771 0ZM3.6771 6.154H1.2151C1.05199 6.154 0.895565 6.21879 0.78023 6.33413C0.664895 6.44946 0.600101 6.60589 0.600101 6.769V9.231C0.600101 9.39411 0.664895 9.55054 0.78023 9.66587C0.895565 9.78121 1.05199 9.846 1.2151 9.846H3.6771C3.84021 9.846 3.99664 9.78121 4.11197 9.66587C4.22731 9.55054 4.2921 9.39411 4.2921 9.231V6.769C4.2921 6.60589 4.22731 6.44946 4.11197 6.33413C3.99664 6.21879 3.84021 6.154 3.6771 6.154ZM19.6771 12.923H7.3691C7.20599 12.923 7.04957 12.9878 6.93423 13.1031C6.8189 13.2185 6.7541 13.3749 6.7541 13.538V14.769C6.7541 14.9321 6.8189 15.0885 6.93423 15.2039C7.04957 15.3192 7.20599 15.384 7.3691 15.384H19.6771C19.8402 15.384 19.9966 15.3192 20.112 15.2039C20.2273 15.0885 20.2921 14.9321 20.2921 14.769V13.538C20.2916 13.3752 20.2265 13.2193 20.1113 13.1044C19.996 12.9895 19.8399 12.925 19.6771 12.925V12.923ZM19.6771 0.615H7.3691C7.20599 0.615 7.04957 0.679794 6.93423 0.795129C6.8189 0.910464 6.7541 1.06689 6.7541 1.23V2.462C6.7541 2.62511 6.8189 2.78154 6.93423 2.89687C7.04957 3.01221 7.20599 3.077 7.3691 3.077H19.6771C19.8402 3.077 19.9966 3.01221 20.112 2.89687C20.2273 2.78154 20.2921 2.62511 20.2921 2.462V1.231C20.2922 1.15015 20.2764 1.07007 20.2456 0.995343C20.2147 0.920612 20.1694 0.852697 20.1123 0.795483C20.0552 0.738269 19.9874 0.692879 19.9127 0.66191C19.838 0.63094 19.7579 0.615 19.6771 0.615ZM19.6771 6.769H7.3691C7.20599 6.769 7.04957 6.83379 6.93423 6.94913C6.8189 7.06446 6.7541 7.22089 6.7541 7.384V8.615C6.7541 8.77811 6.8189 8.93454 6.93423 9.04987C7.04957 9.16521 7.20599 9.23 7.3691 9.23H19.6771C19.8402 9.23 19.9966 9.16521 20.112 9.04987C20.2273 8.93454 20.2921 8.77811 20.2921 8.615V7.385C20.2922 7.30415 20.2764 7.22407 20.2456 7.14934C20.2147 7.07461 20.1694 7.0067 20.1123 6.94948C20.0552 6.89227 19.9874 6.84688 19.9127 6.81591C19.838 6.78494 19.7579 6.769 19.6771 6.769Z" fill="#333333" fill-opacity="0.36"/>
</svg>
