<svg width="14" height="14" viewBox="0 0 14 14" fill="none" xmlns="http://www.w3.org/2000/svg">
<path d="M0.333008 10.889V13.667H3.11001L11.301 5.47599L8.52401 2.69799L0.333008 10.889ZM13.45 3.32699C13.5186 3.25845 13.573 3.17708 13.6101 3.08751C13.6472 2.99794 13.6663 2.90194 13.6663 2.80499C13.6663 2.70804 13.6472 2.61203 13.6101 2.52247C13.573 2.4329 13.5186 2.35152 13.45 2.28299L11.717 0.549989C11.6485 0.481413 11.5671 0.427013 11.4775 0.389898C11.388 0.352782 11.292 0.333679 11.195 0.333679C11.0981 0.333679 11.0021 0.352782 10.9125 0.389898C10.8229 0.427013 10.7415 0.481413 10.673 0.549989L9.31701 1.90499L12.094 4.68199L13.45 3.32699Z" fill="white"/>
</svg>
