<svg width="15" height="16" viewBox="0 0 15 16" fill="none" xmlns="http://www.w3.org/2000/svg">
<path d="M7.92499 6.411C7.92499 6.55182 7.96675 6.68948 8.04498 6.80657C8.12322 6.92366 8.2344 7.01492 8.3645 7.06881C8.4946 7.1227 8.63776 7.13679 8.77588 7.10932C8.91399 7.08185 9.04087 7.01404 9.14044 6.91447C9.24002 6.81489 9.30782 6.68802 9.3353 6.5499C9.36277 6.41179 9.34869 6.26863 9.2948 6.13853C9.24091 6.00843 9.14965 5.89723 9.03256 5.81899C8.91547 5.74076 8.77781 5.699 8.63699 5.699C8.44816 5.699 8.26704 5.77401 8.13351 5.90754C7.99999 6.04107 7.92499 6.22217 7.92499 6.411Z" fill="black"/>
<path d="M9.638 5.416C9.638 5.52874 9.67144 5.63895 9.73407 5.73268C9.7967 5.82642 9.88571 5.89947 9.98987 5.94261C10.094 5.98575 10.2086 5.99705 10.3192 5.97505C10.4298 5.95306 10.5313 5.89876 10.6111 5.81905C10.6908 5.73933 10.7451 5.63778 10.7671 5.52721C10.7891 5.41664 10.7778 5.30203 10.7346 5.19788C10.6915 5.09372 10.6184 5.00469 10.5247 4.94206C10.431 4.87943 10.3207 4.84599 10.208 4.84599C10.0569 4.84626 9.91208 4.90641 9.80524 5.01324C9.6984 5.12008 9.63826 5.26491 9.638 5.416Z" fill="black"/>
<path d="M3.64902 3.434C3.69658 3.42547 3.74471 3.42045 3.79301 3.419C4.03954 3.42097 4.27665 3.51394 4.45882 3.68005C4.64098 3.84616 4.75537 4.07371 4.78001 4.319C4.87596 4.29131 4.97517 4.27651 5.07502 4.27501C5.34228 4.27555 5.60086 4.36997 5.80557 4.54179C6.01029 4.71361 6.14813 4.95189 6.19501 5.215C6.4468 5.11696 6.72355 5.10294 6.98396 5.17502C7.24436 5.24711 7.47449 5.40144 7.64002 5.61501C7.80555 5.40144 8.03568 5.24711 8.29609 5.17502C8.5565 5.10294 8.83323 5.11696 9.08501 5.215C9.1319 4.95189 9.26975 4.71361 9.47446 4.54179C9.67918 4.36997 9.93776 4.27555 10.205 4.27501C10.3049 4.27651 10.4041 4.29131 10.5 4.319C10.5247 4.07371 10.6391 3.84616 10.8212 3.68005C11.0034 3.51394 11.2405 3.42097 11.487 3.419C11.5353 3.42045 11.5835 3.42547 11.631 3.434C11.631 3.434 11.631 3.424 11.631 3.419C11.6326 3.27894 11.669 3.14148 11.737 3.019C11.3841 2.64386 11.0698 2.23413 10.799 1.79601L10.787 1.779C10.634 1.532 10.515 1.312 10.427 1.133C10.2691 1.24023 10.0976 1.32598 9.91702 1.388C9.89758 1.39737 9.8771 1.40442 9.85601 1.409C8.40794 1.81506 6.87609 1.81506 5.42802 1.409C5.40654 1.40418 5.38573 1.39679 5.36602 1.387C5.18546 1.32501 5.01395 1.23926 4.85602 1.132C4.76702 1.311 4.64902 1.532 4.49602 1.778L4.48402 1.795C4.21321 2.23313 3.89896 2.64287 3.54602 3.01801C3.614 3.14048 3.65042 3.27794 3.65202 3.418C3.65202 3.418 3.64902 3.429 3.64902 3.434Z" fill="black"/>
<path d="M12.484 3.704C12.5404 3.704 12.5955 3.68729 12.6424 3.65597C12.6892 3.62466 12.7258 3.58014 12.7473 3.52807C12.7689 3.47599 12.7745 3.41869 12.7635 3.3634C12.7526 3.30812 12.7254 3.25733 12.6855 3.21747C12.6457 3.17762 12.5949 3.15048 12.5396 3.13948C12.4844 3.12848 12.427 3.13413 12.375 3.1557C12.3229 3.17727 12.2784 3.2138 12.2471 3.26066C12.2158 3.30753 12.199 3.36264 12.199 3.419C12.199 3.45643 12.2064 3.49349 12.2207 3.52807C12.2351 3.56264 12.256 3.59406 12.2825 3.62053C12.309 3.64699 12.3404 3.66799 12.375 3.68231C12.4095 3.69663 12.4466 3.704 12.484 3.704Z" fill="black"/>
<path d="M11.059 4.416C11.059 4.50045 11.0841 4.58301 11.131 4.65323C11.1779 4.72345 11.2446 4.77818 11.3226 4.8105C11.4007 4.84282 11.4865 4.85127 11.5693 4.83479C11.6522 4.81832 11.7282 4.77764 11.788 4.71793C11.8477 4.65821 11.8883 4.58213 11.9048 4.4993C11.9213 4.41647 11.9128 4.33062 11.8805 4.25259C11.8482 4.17457 11.7935 4.10788 11.7233 4.06096C11.653 4.01404 11.5705 3.989 11.486 3.989C11.3729 3.98926 11.2644 4.03433 11.1844 4.11435C11.1044 4.19437 11.0593 4.30283 11.059 4.416Z" fill="black"/>
<path d="M7.63904 1.14C9.29104 1.14 10.145 0.731 10.203 0.57C10.145 0.409 9.29104 0 7.63904 0C5.97204 0 5.11804 0.416 5.07404 0.574C5.11804 0.724 5.97204 1.14 7.63904 1.14Z" fill="black"/>
<path d="M4.505 5.416C4.505 5.52874 4.53844 5.63895 4.60107 5.73268C4.66371 5.82642 4.75272 5.89947 4.85687 5.94261C4.96103 5.98575 5.07563 5.99705 5.1862 5.97505C5.29677 5.95306 5.39834 5.89876 5.47806 5.81905C5.55777 5.73933 5.61207 5.63778 5.63406 5.52721C5.65606 5.41664 5.64477 5.30203 5.60162 5.19788C5.55848 5.09372 5.48541 5.00469 5.39168 4.94206C5.29794 4.87943 5.18775 4.84599 5.07501 4.84599C4.92384 4.84599 4.77885 4.90606 4.67195 5.01295C4.56506 5.11985 4.505 5.26483 4.505 5.416Z" fill="black"/>
<path d="M6.87601 13.438C7.37053 13.6097 7.90848 13.6097 8.40301 13.438C13.572 11.624 14.354 5.957 14.462 4.769C13.9513 4.60664 13.4646 4.37659 13.015 4.08499C12.8648 4.20777 12.677 4.27521 12.483 4.276H12.469C12.4775 4.32357 12.4825 4.3717 12.484 4.42C12.484 4.68521 12.3787 4.93957 12.1911 5.12711C12.0036 5.31464 11.7492 5.42 11.484 5.42C11.4357 5.41854 11.3876 5.41353 11.34 5.405C11.34 5.405 11.34 5.415 11.34 5.42C11.3397 5.72226 11.2196 6.01207 11.0058 6.2258C10.7921 6.43953 10.5023 6.55973 10.2 6.56C10.1002 6.55849 10.001 6.54369 9.90501 6.51599C9.8878 6.77278 9.79311 7.0183 9.63343 7.22014C9.47376 7.42198 9.25662 7.57063 9.01068 7.64647C8.76475 7.72231 8.5016 7.72177 8.25598 7.64491C8.01037 7.56805 7.79384 7.4185 7.63501 7.216C7.47617 7.4185 7.25965 7.56805 7.01403 7.64491C6.76841 7.72177 6.50526 7.72231 6.25933 7.64647C6.0134 7.57063 5.79626 7.42198 5.63658 7.22014C5.47691 7.0183 5.38222 6.77278 5.36501 6.51599C5.26906 6.54369 5.16986 6.55849 5.07001 6.56C4.76774 6.55973 4.47793 6.43953 4.2642 6.2258C4.05046 6.01207 3.93027 5.72226 3.93001 5.42C3.93001 5.42 3.93001 5.41 3.93001 5.405C3.88244 5.41353 3.83431 5.41854 3.78601 5.42C3.52079 5.42 3.26644 5.31464 3.0789 5.12711C2.89136 4.93957 2.78601 4.68521 2.78601 4.42C2.78747 4.3717 2.79249 4.32357 2.80101 4.276H2.78601C2.59202 4.27521 2.4042 4.20777 2.25401 4.08499C1.80439 4.37659 1.31772 4.60664 0.807007 4.769C0.929007 5.96 1.71501 11.626 6.87601 13.438Z" fill="black"/>
<path d="M9.812 15.311C9.83243 15.3838 9.82309 15.4617 9.78606 15.5277C9.74902 15.5936 9.6873 15.6421 9.6145 15.6625C9.5417 15.6829 9.46377 15.6736 9.39785 15.6366C9.33193 15.5995 9.28343 15.5378 9.26301 15.465C9.09888 14.8782 9.11878 14.2552 9.32001 13.68C9.08601 13.786 8.845 13.886 8.592 13.98C7.97664 14.1934 7.30737 14.1934 6.692 13.98C6.438 13.891 6.198 13.79 5.96301 13.68C6.16423 14.2552 6.18413 14.8782 6.02 15.465C6.00989 15.5011 5.99278 15.5348 5.96964 15.5642C5.94651 15.5936 5.9178 15.6182 5.88516 15.6366C5.81924 15.6736 5.7413 15.6829 5.6685 15.6625C5.5957 15.6421 5.53399 15.5936 5.49696 15.5277C5.45992 15.4617 5.45059 15.3838 5.47101 15.311C5.50712 15.182 5.53221 15.0502 5.54601 14.917C4.81116 14.933 4.08667 15.0937 3.414 15.39C4.76993 15.8668 6.20932 16.0601 7.64301 15.958C9.07676 16.0598 10.5161 15.8661 11.872 15.389C11.1993 15.0927 10.4749 14.932 9.74001 14.916C9.75288 15.0495 9.77696 15.1816 9.812 15.311Z" fill="black"/>
<path d="M3.79199 4.844C3.87644 4.844 3.959 4.81896 4.02922 4.77204C4.09944 4.72512 4.15417 4.65843 4.18649 4.5804C4.21881 4.50238 4.22726 4.41653 4.21078 4.3337C4.19431 4.25087 4.15364 4.17477 4.09393 4.11506C4.03421 4.05534 3.95813 4.01468 3.8753 3.9982C3.79247 3.98173 3.70661 3.99018 3.62859 4.0225C3.55056 4.05482 3.48388 4.10955 3.43696 4.17977C3.39004 4.24999 3.36499 4.33254 3.36499 4.417C3.36499 4.53024 3.40998 4.63886 3.49006 4.71894C3.57014 4.79902 3.67874 4.844 3.79199 4.844Z" fill="black"/>
<path d="M5.92999 6.411C5.92999 6.55182 5.97175 6.68948 6.04999 6.80657C6.12822 6.92366 6.23942 7.01492 6.36952 7.06881C6.49962 7.1227 6.64278 7.13679 6.7809 7.10932C6.91901 7.08185 7.04587 7.01404 7.14545 6.91447C7.24502 6.81489 7.31284 6.68802 7.34032 6.5499C7.36779 6.41179 7.35368 6.26863 7.29979 6.13853C7.2459 6.00843 7.15464 5.89723 7.03755 5.81899C6.92046 5.74076 6.78282 5.699 6.642 5.699C6.45316 5.699 6.27206 5.77401 6.13853 5.90754C6.00501 6.04107 5.92999 6.22217 5.92999 6.411Z" fill="black"/>
<path d="M2.79501 3.704C2.85137 3.704 2.90648 3.68729 2.95335 3.65597C3.00021 3.62466 3.03674 3.58014 3.05831 3.52807C3.07988 3.47599 3.08553 3.41869 3.07453 3.3634C3.06353 3.30812 3.03639 3.25733 2.99653 3.21747C2.95667 3.17762 2.90589 3.15048 2.85061 3.13948C2.79532 3.12848 2.73802 3.13413 2.68594 3.1557C2.63387 3.17727 2.58935 3.2138 2.55804 3.26066C2.52672 3.30753 2.51001 3.36264 2.51001 3.419C2.51001 3.49459 2.54004 3.56708 2.59348 3.62053C2.64693 3.67397 2.71942 3.704 2.79501 3.704Z" fill="black"/>
</svg>
