<svg width="26" height="26" viewBox="0 0 26 26" fill="none" xmlns="http://www.w3.org/2000/svg">
<path d="M21.556 11.778C21.556 13.7119 20.9825 15.6024 19.9081 17.2104C18.8337 18.8183 17.3066 20.0716 15.5199 20.8117C13.7332 21.5518 11.7672 21.7454 9.87041 21.3681C7.97367 20.9908 6.23139 20.0596 4.86391 18.6921C3.49644 17.3246 2.56517 15.5823 2.18789 13.6856C1.8106 11.7888 2.00424 9.82282 2.74431 8.03612C3.48438 6.24943 4.73765 4.72231 6.34564 3.64789C7.95362 2.57347 9.8441 2 11.778 2C13.0621 2 14.3336 2.25292 15.5199 2.74431C16.7062 3.2357 17.7841 3.95594 18.6921 4.86391C19.6001 5.77188 20.3203 6.8498 20.8117 8.03612C21.3031 9.22244 21.556 10.4939 21.556 11.778V11.778Z" stroke="#A0A0A0" stroke-width="3" stroke-linecap="round" stroke-linejoin="round"/>
<path d="M24 24L18.683 18.683" stroke="#A0A0A0" stroke-width="3" stroke-linecap="round" stroke-linejoin="round"/>
</svg>
