<svg width="26" height="25" viewBox="0 0 26 25" fill="none" xmlns="http://www.w3.org/2000/svg">
<path d="M11.137 21.5C11.145 21.6993 11.0932 21.8964 10.9883 22.066C10.8834 22.2356 10.7301 22.37 10.5482 22.4519C10.3664 22.5337 10.1641 22.5593 9.96761 22.5254C9.77107 22.4914 9.58917 22.3995 9.44529 22.2614C9.3014 22.1232 9.20211 21.9452 9.16017 21.7503C9.11824 21.5553 9.13556 21.3522 9.20993 21.1671C9.2843 20.982 9.41231 20.8234 9.57752 20.7117C9.74272 20.5999 9.93757 20.5401 10.137 20.54C10.3969 20.5349 10.6481 20.6331 10.8356 20.8131C11.0231 20.9931 11.1315 21.2401 11.137 21.5V21.5Z" stroke="#333333" stroke-width="3" stroke-linecap="round" stroke-linejoin="round"/>
<path d="M22.137 21.5C22.145 21.6993 22.0932 21.8964 21.9883 22.066C21.8834 22.2356 21.7301 22.37 21.5482 22.4519C21.3664 22.5337 21.1641 22.5593 20.9676 22.5254C20.7711 22.4914 20.5892 22.3995 20.4453 22.2614C20.3014 22.1232 20.2021 21.9452 20.1602 21.7503C20.1182 21.5553 20.1356 21.3522 20.2099 21.1671C20.2843 20.982 20.4123 20.8234 20.5775 20.7117C20.7427 20.5999 20.9376 20.5401 21.137 20.54C21.3969 20.5349 21.6481 20.6331 21.8356 20.8131C22.0231 20.9931 22.1315 21.2401 22.137 21.5V21.5Z" stroke="#333333" stroke-width="3" stroke-linecap="round" stroke-linejoin="round"/>
<path d="M2.13696 1.53998H6.13696L8.81696 14.93C8.90841 15.3904 9.15887 15.8039 9.52451 16.0983C9.89015 16.3926 10.3477 16.549 10.817 16.54H20.537C21.0063 16.549 21.4638 16.3926 21.8294 16.0983C22.1951 15.8039 22.4455 15.3904 22.537 14.93L24.137 6.53998H7.13696" stroke="#333333" stroke-width="3" stroke-linecap="round" stroke-linejoin="round"/>
</svg>
