<svg width="23" height="24" viewBox="0 0 23 24" fill="none" xmlns="http://www.w3.org/2000/svg">
<path d="M19.072 16.964C18.1968 16.968 17.3546 17.299 16.711 17.892L8.12096 12.892C8.18722 12.6157 8.22343 12.3331 8.22896 12.049C8.22343 11.7649 8.18722 11.4823 8.12096 11.206L16.615 6.25399C17.2232 6.81673 18.0066 7.15284 18.8335 7.20579C19.6604 7.25875 20.4803 7.02531 21.1553 6.54475C21.8303 6.06418 22.3192 5.36582 22.5398 4.56712C22.7604 3.76842 22.6992 2.91812 22.3665 2.15925C22.0338 1.40038 21.4499 0.779245 20.713 0.40032C19.9761 0.0213946 19.1312 -0.0921981 18.3204 0.0786489C17.5096 0.249496 16.7824 0.694358 16.2611 1.33841C15.7398 1.98245 15.4562 2.78639 15.458 3.61499C15.4635 3.89906 15.4997 4.1817 15.566 4.45799L7.07196 9.40999C6.55754 8.92848 5.91357 8.60785 5.2193 8.48755C4.52503 8.36725 3.81074 8.45253 3.1643 8.73289C2.51786 9.01325 1.96748 9.47646 1.58087 10.0655C1.19426 10.6546 0.988281 11.3439 0.988281 12.0485C0.988281 12.7531 1.19426 13.4424 1.58087 14.0314C1.96748 14.6205 2.51786 15.0837 3.1643 15.3641C3.81074 15.6445 4.52503 15.7297 5.2193 15.6094C5.91357 15.4891 6.55754 15.1685 7.07196 14.687L15.651 19.7C15.5873 19.9562 15.5538 20.219 15.551 20.483C15.551 21.1788 15.7573 21.859 16.1439 22.4375C16.5304 23.016 17.0798 23.4669 17.7227 23.7332C18.3655 23.9995 19.0729 24.0691 19.7553 23.9334C20.4377 23.7976 21.0646 23.4626 21.5566 22.9706C22.0486 22.4786 22.3836 21.8517 22.5194 21.1693C22.6551 20.4869 22.5854 19.7795 22.3192 19.1367C22.0529 18.4939 21.602 17.9444 21.0235 17.5579C20.4449 17.1713 19.7648 16.965 19.069 16.965L19.072 16.964Z" fill="#6F7F8A"/>
</svg>
