<svg width="15" height="12" viewBox="0 0 15 12" fill="none" xmlns="http://www.w3.org/2000/svg">
<path d="M14.7849 1.10635C14.6467 0.968216 14.4593 0.890625 14.2639 0.890625C14.0685 0.890625 13.8811 0.968216 13.7429 1.10635L4.91291 9.93635L1.51891 6.54235C1.38073 6.40404 1.19327 6.32628 0.997766 6.32619C0.80226 6.32609 0.614723 6.40367 0.476413 6.54185C0.338102 6.68003 0.260348 6.86749 0.260254 7.063C0.26016 7.2585 0.337735 7.44604 0.475913 7.58435L4.39091 11.4994C4.52912 11.6375 4.71652 11.7151 4.91191 11.7151C5.10731 11.7151 5.29471 11.6375 5.43291 11.4994L14.7839 2.14835C14.9222 2.01028 14.9999 1.82295 15.0001 1.62756C15.0003 1.43216 14.9229 1.24468 14.7849 1.10635V1.10635Z" fill="#309D00"/>
</svg>
