<svg width="20" height="17" viewBox="0 0 20 17" fill="none" xmlns="http://www.w3.org/2000/svg">
<path d="M15.045 6.06143e-06H9.516C9.16567 5.27688e-05 8.8297 0.139259 8.582 0.387005L1.382 7.58201C1.13432 7.82973 0.995178 8.1657 0.995178 8.516C0.995178 8.86631 1.13432 9.20228 1.382 9.45L6.915 14.976C7.03758 15.0986 7.18311 15.1959 7.34328 15.2622C7.50345 15.3286 7.67513 15.3627 7.8485 15.3627C8.02187 15.3627 8.19355 15.3286 8.35372 15.2622C8.51389 15.1959 8.65942 15.0986 8.782 14.976L15.982 7.781C16.2297 7.53287 16.3689 7.19662 16.369 6.846V1.32001C16.369 1.14632 16.3347 0.974348 16.2681 0.813937C16.2016 0.653526 16.104 0.507832 15.981 0.385207C15.858 0.262581 15.712 0.165434 15.5514 0.0993332C15.3908 0.0332326 15.2187 -0.000520248 15.045 6.06143e-06ZM12.734 4.621C12.5382 4.621 12.3468 4.56294 12.184 4.45416C12.0212 4.34538 11.8943 4.19076 11.8194 4.00986C11.7444 3.82896 11.7248 3.62991 11.763 3.43787C11.8012 3.24583 11.8955 3.06942 12.034 2.93097C12.1724 2.79252 12.3488 2.69823 12.5409 2.66003C12.7329 2.62183 12.932 2.64143 13.1129 2.71636C13.2938 2.79129 13.4484 2.91819 13.5572 3.08099C13.6659 3.24379 13.724 3.4352 13.724 3.631C13.7237 3.89349 13.6193 4.14514 13.4337 4.33075C13.2481 4.51635 12.9965 4.62074 12.734 4.621Z" fill="black"/>
<path d="M17.686 1.32001V7.46601C17.686 7.61687 17.6562 7.76624 17.5984 7.90558C17.5405 8.04491 17.4558 8.17147 17.349 8.27801L10.037 15.59L10.149 15.702C10.2716 15.8246 10.4171 15.9219 10.5773 15.9882C10.7374 16.0546 10.9091 16.0887 11.0825 16.0887C11.2559 16.0887 11.4275 16.0546 11.5877 15.9882C11.7479 15.9219 11.8934 15.8246 12.016 15.702L18.616 9.10201C18.7388 8.97963 18.8363 8.83423 18.9029 8.67414C18.9695 8.51404 19.0038 8.3424 19.004 8.16901V2.64001C19.004 2.29027 18.8652 1.95482 18.6181 1.70733C18.371 1.45984 18.0357 1.32054 17.686 1.32001Z" fill="black"/>
</svg>
