<svg width="18" height="14" viewBox="0 0 18 14" fill="none" xmlns="http://www.w3.org/2000/svg">
<path d="M15.466 3.48901C15.477 3.64201 15.477 3.79501 15.477 3.94801C15.4862 5.27062 15.2324 6.58187 14.7305 7.80557C14.2286 9.02928 13.4885 10.1411 12.5533 11.0763C11.618 12.0115 10.5063 12.7516 9.28256 13.2535C8.05885 13.7554 6.74761 14.0092 5.425 14C3.50164 14.005 1.61779 13.4542 0 12.414C0.283232 12.4453 0.568052 12.46 0.853 12.458C2.44303 12.4622 3.9881 11.9306 5.239 10.949C4.50235 10.935 3.78846 10.6913 3.19689 10.2522C2.60533 9.81296 2.16558 9.20009 1.939 8.49901C2.15964 8.53404 2.3826 8.55243 2.606 8.55401C2.91981 8.55323 3.23227 8.51291 3.536 8.43401C2.7351 8.27284 2.01481 7.8391 1.49773 7.2066C0.980648 6.57411 0.698743 5.78197 0.7 4.96501V4.91901C1.1905 5.19253 1.73878 5.34605 2.3 5.36701C1.54988 4.86796 1.01841 4.10153 0.814002 3.22406C0.609593 2.34659 0.747646 1.42419 1.2 0.645013C2.08704 1.73776 3.19388 2.63183 4.44872 3.26924C5.70356 3.90666 7.07838 4.27317 8.484 4.34501C8.4283 4.07793 8.40015 3.80584 8.4 3.53301C8.40123 2.82467 8.61518 2.13303 9.01411 1.54772C9.41305 0.962398 9.97858 0.510385 10.6374 0.250253C11.2963 -0.00988001 12.0181 -0.0661416 12.7093 0.0887588C13.4004 0.243659 14.0292 0.602581 14.514 1.11901C15.3051 0.966676 16.0637 0.678051 16.756 0.266013C16.491 1.08144 15.9378 1.77227 15.2 2.20901C15.9015 2.12909 16.5871 1.94471 17.234 1.66201C16.7515 2.36604 16.1538 2.98369 15.466 3.48901Z" fill="white"/>
</svg>
