<svg width="15" height="16" viewBox="0 0 15 16" fill="none" xmlns="http://www.w3.org/2000/svg">
<path d="M7.15992 0C6.32548 0 5.50977 0.24744 4.81596 0.71103C4.12215 1.17462 3.5814 1.83354 3.26207 2.60446C2.94274 3.37538 2.8592 4.22368 3.02199 5.04209C3.18478 5.86049 3.5866 6.61225 4.17664 7.20228C4.76667 7.79232 5.51842 8.19414 6.33683 8.35693C7.15524 8.51972 8.00354 8.43617 8.77446 8.11685C9.54538 7.79752 10.2043 7.25676 10.6679 6.56295C11.1315 5.86914 11.3789 5.05344 11.3789 4.219C11.3779 3.10038 10.933 2.02787 10.142 1.23689C9.35105 0.4459 8.27854 0.00105905 7.15992 0V0Z" fill="#333333"/>
<path d="M14.1119 12.459C13.4932 11.5289 12.654 10.7662 11.6691 10.2391C10.6841 9.71201 9.58405 9.4368 8.46693 9.438H5.85193C4.73481 9.4368 3.63475 9.71201 2.6498 10.2391C1.66485 10.7662 0.825626 11.5289 0.206928 12.459L0.12793 12.577V16H14.1909V12.577L14.1119 12.459Z" fill="#333333"/>
</svg>
